<svg width="25" height="24" viewBox="0 0 25 24" fill="none" xmlns="http://www.w3.org/2000/svg">
<path d="M19.9498 11.5C19.9533 12.8199 19.6449 14.1219 19.0498 15.3C18.3443 16.7118 17.2596 17.8992 15.9173 18.7293C14.575 19.5594 13.0281 19.9994 11.4498 20C10.13 20.0035 8.82794 19.6951 7.64983 19.1L1.94983 21L3.84983 15.3C3.25476 14.1219 2.94639 12.8199 2.94983 11.5C2.95044 9.92179 3.39044 8.37488 4.22055 7.03258C5.05066 5.69028 6.23808 4.6056 7.64983 3.90003C8.82794 3.30496 10.13 2.99659 11.4498 3.00003H11.9498C14.0342 3.11502 16.0029 3.99479 17.479 5.47089C18.9551 6.94699 19.8348 8.91568 19.9498 11V11.5Z" stroke="#161C24" strokeWidth="2" strokeLinecap="round" strokeLinejoin="round"/>
<circle cx="20.4498" cy="6.5" r="3.5" fill="#FF6C00"/>
</svg>
