<svg width="21" height="21" viewBox="0 0 21 21" fill="none" xmlns="http://www.w3.org/2000/svg">
<path d="M9.82907 5.36572H11.8291V7.36572H9.82907V5.36572ZM9.82907 9.36572H11.8291V15.3657H9.82907V9.36572ZM10.8291 0.365723C5.30907 0.365723 0.829071 4.84572 0.829071 10.3657C0.829071 15.8857 5.30907 20.3657 10.8291 20.3657C16.3491 20.3657 20.8291 15.8857 20.8291 10.3657C20.8291 4.84572 16.3491 0.365723 10.8291 0.365723ZM10.8291 18.3657C6.41907 18.3657 2.82907 14.7757 2.82907 10.3657C2.82907 5.95572 6.41907 2.36572 10.8291 2.36572C15.2391 2.36572 18.8291 5.95572 18.8291 10.3657C18.8291 14.7757 15.2391 18.3657 10.8291 18.3657Z" fill="#7A7B7A"/>
</svg>
