<svg width="21" height="19" viewBox="0 0 21 19" fill="none" xmlns="http://www.w3.org/2000/svg">
<path d="M15.329 0.190918C13.589 0.190918 11.919 1.00092 10.829 2.28092C9.73904 1.00092 8.06904 0.190918 6.32904 0.190918C3.24904 0.190918 0.829041 2.61092 0.829041 5.69092C0.829041 9.47092 4.22904 12.5509 9.37904 17.2309L10.829 18.5409L12.279 17.2209C17.429 12.5509 20.829 9.47092 20.829 5.69092C20.829 2.61092 18.409 0.190918 15.329 0.190918ZM10.929 15.7409L10.829 15.8409L10.729 15.7409C5.96904 11.4309 2.82904 8.58092 2.82904 5.69092C2.82904 3.69092 4.32904 2.19092 6.32904 2.19092C7.86904 2.19092 9.36904 3.18092 9.89904 4.55092H11.769C12.289 3.18092 13.789 2.19092 15.329 2.19092C17.329 2.19092 18.829 3.69092 18.829 5.69092C18.829 8.58092 15.689 11.4309 10.929 15.7409Z" fill="#7A7B7A"/>
</svg>
