<svg width="19" height="21" viewBox="0 0 19 21" fill="none" xmlns="http://www.w3.org/2000/svg">
<path d="M17.3291 1.86572L15.8291 0.365723L14.3291 1.86572L12.8291 0.365723L11.3291 1.86572L9.82907 0.365723L8.32907 1.86572L6.82907 0.365723L5.32907 1.86572L3.82907 0.365723L2.32907 1.86572L0.829071 0.365723V20.3657L2.32907 18.8657L3.82907 20.3657L5.32907 18.8657L6.82907 20.3657L8.32907 18.8657L9.82907 20.3657L11.3291 18.8657L12.8291 20.3657L14.3291 18.8657L15.8291 20.3657L17.3291 18.8657L18.8291 20.3657V0.365723L17.3291 1.86572ZM16.8291 17.4557H2.82907V3.27572H16.8291V17.4557ZM3.82907 13.3657H15.8291V15.3657H3.82907V13.3657ZM3.82907 9.36572H15.8291V11.3657H3.82907V9.36572ZM3.82907 5.36572H15.8291V7.36572H3.82907V5.36572Z" fill="#7A7B7A"/>
</svg>
