<svg width="25" height="25" viewBox="0 0 25 25" fill="none" xmlns="http://www.w3.org/2000/svg">
<g clipPath="url(#clip0_574_65634)">
<path d="M12.8291 15.3657C14.4859 15.3657 15.8291 14.0226 15.8291 12.3657C15.8291 10.7089 14.4859 9.36572 12.8291 9.36572C11.1722 9.36572 9.82907 10.7089 9.82907 12.3657C9.82907 14.0226 11.1722 15.3657 12.8291 15.3657Z" stroke="#7A7B7A" strokeWidth="2" strokeLinecap="round" strokeLinejoin="round"/>
<path d="M20.2291 15.3657C20.096 15.6673 20.0562 16.0019 20.1151 16.3263C20.1739 16.6507 20.3285 16.95 20.5591 17.1857L20.6191 17.2457C20.805 17.4315 20.9525 17.652 21.0532 17.8948C21.1538 18.1376 21.2056 18.3979 21.2056 18.6607C21.2056 18.9236 21.1538 19.1838 21.0532 19.4266C20.9525 19.6694 20.805 19.89 20.6191 20.0757C20.4333 20.2617 20.2127 20.4092 19.97 20.5098C19.7272 20.6105 19.4669 20.6623 19.2041 20.6623C18.9412 20.6623 18.681 20.6105 18.4382 20.5098C18.1954 20.4092 17.9748 20.2617 17.7891 20.0757L17.7291 20.0157C17.4934 19.7852 17.1941 19.6305 16.8697 19.5717C16.5453 19.5129 16.2107 19.5526 15.9091 19.6857C15.6133 19.8125 15.3611 20.023 15.1834 20.2913C15.0057 20.5595 14.9104 20.8739 14.9091 21.1957V21.3657C14.9091 21.8962 14.6984 22.4049 14.3233 22.7799C13.9482 23.155 13.4395 23.3657 12.9091 23.3657C12.3786 23.3657 11.8699 23.155 11.4949 22.7799C11.1198 22.4049 10.9091 21.8962 10.9091 21.3657V21.2757C10.9013 20.9447 10.7942 20.6237 10.6016 20.3544C10.409 20.0851 10.1398 19.88 9.82907 19.7657C9.52746 19.6326 9.19288 19.5929 8.86848 19.6517C8.54409 19.7105 8.24475 19.8652 8.00907 20.0957L7.94907 20.1557C7.76332 20.3417 7.54275 20.4892 7.29995 20.5898C7.05716 20.6905 6.7969 20.7423 6.53407 20.7423C6.27124 20.7423 6.01099 20.6905 5.76819 20.5898C5.52539 20.4892 5.30482 20.3417 5.11907 20.1557C4.93312 19.97 4.7856 19.7494 4.68495 19.5066C4.5843 19.2638 4.5325 19.0036 4.5325 18.7407C4.5325 18.4779 4.5843 18.2176 4.68495 17.9748C4.7856 17.732 4.93312 17.5115 5.11907 17.3257L5.17907 17.2657C5.40961 17.03 5.56426 16.7307 5.62308 16.4063C5.68189 16.0819 5.64219 15.7473 5.50907 15.4457C5.38231 15.15 5.17183 14.8977 4.90354 14.72C4.63525 14.5424 4.32086 14.447 3.99907 14.4457H3.82907C3.29864 14.4457 2.78993 14.235 2.41486 13.8599C2.03978 13.4849 1.82907 12.9762 1.82907 12.4457C1.82907 11.9153 2.03978 11.4066 2.41486 11.0315C2.78993 10.6564 3.29864 10.4457 3.82907 10.4457H3.91907C4.25007 10.438 4.57108 10.3308 4.84037 10.1382C5.10966 9.94563 5.31479 9.67646 5.42907 9.36572C5.56219 9.06411 5.60189 8.72953 5.54308 8.40513C5.48426 8.08074 5.32961 7.7814 5.09907 7.54572L5.03907 7.48572C4.85312 7.29998 4.7056 7.0794 4.60495 6.8366C4.5043 6.59381 4.4525 6.33355 4.4525 6.07072C4.4525 5.80789 4.5043 5.54764 4.60495 5.30484C4.7056 5.06205 4.85312 4.84147 5.03907 4.65572C5.22482 4.46977 5.44539 4.32225 5.68819 4.2216C5.93099 4.12095 6.19124 4.06915 6.45407 4.06915C6.7169 4.06915 6.97716 4.12095 7.21995 4.2216C7.46275 4.32225 7.68332 4.46977 7.86907 4.65572L7.92907 4.71572C8.16475 4.94626 8.46409 5.10091 8.78848 5.15973C9.11288 5.21855 9.44746 5.17884 9.74907 5.04572H9.82907C10.1248 4.91896 10.3771 4.70848 10.5548 4.44019C10.7324 4.1719 10.8278 3.85751 10.8291 3.53572V3.36572C10.8291 2.83529 11.0398 2.32658 11.4149 1.95151C11.7899 1.57644 12.2986 1.36572 12.8291 1.36572C13.3595 1.36572 13.8682 1.57644 14.2433 1.95151C14.6184 2.32658 14.8291 2.83529 14.8291 3.36572V3.45572C14.8304 3.77751 14.9257 4.0919 15.1034 4.36019C15.2811 4.62848 15.5333 4.83896 15.8291 4.96572C16.1307 5.09884 16.4653 5.13855 16.7897 5.07973C17.1141 5.02091 17.4134 4.86626 17.6491 4.63572L17.7091 4.57572C17.8948 4.38977 18.1154 4.24225 18.3582 4.1416C18.601 4.04095 18.8612 3.98915 19.1241 3.98915C19.3869 3.98915 19.6472 4.04095 19.89 4.1416C20.1327 4.24225 20.3533 4.38977 20.5391 4.57572C20.725 4.76147 20.8725 4.98205 20.9732 5.22484C21.0738 5.46764 21.1256 5.72789 21.1256 5.99072C21.1256 6.25355 21.0738 6.51381 20.9732 6.7566C20.8725 6.9994 20.725 7.21998 20.5391 7.40572L20.4791 7.46572C20.2485 7.7014 20.0939 8.00074 20.0351 8.32513C19.9762 8.64953 20.016 8.98411 20.1491 9.28572V9.36572C20.2758 9.66149 20.4863 9.91374 20.7546 10.0914C21.0229 10.2691 21.3373 10.3644 21.6591 10.3657H21.8291C22.3595 10.3657 22.8682 10.5764 23.2433 10.9515C23.6184 11.3266 23.8291 11.8353 23.8291 12.3657C23.8291 12.8962 23.6184 13.4049 23.2433 13.7799C22.8682 14.155 22.3595 14.3657 21.8291 14.3657H21.7391C21.4173 14.367 21.1029 14.4624 20.8346 14.64C20.5663 14.8177 20.3558 15.07 20.2291 15.3657V15.3657Z" stroke="#7A7B7A" strokeWidth="2" strokeLinecap="round" strokeLinejoin="round"/>
</g>
<defs>
<clipPath id="clip0_574_65634">
<rect width="24" height="24" fill="white" transform="translate(0.829071 0.365723)"/>
</clipPath>
</defs>
</svg>
