<svg width="17" height="11" viewBox="0 0 17 11" fill="none" xmlns="http://www.w3.org/2000/svg">
<path d="M13.5138 6.99997C13.239 6.99997 13.0158 7.2241 13.0158 7.49997C13.0158 7.77583 13.239 7.99997 13.5138 7.99997C13.7886 7.99997 14.0118 7.77583 14.0118 7.49997C14.0118 7.2241 13.7886 6.99997 13.5138 6.99997Z" fill="#FFAA45"/>
<path d="M16.502 0H5.02181V1.5C5.02181 1.77637 4.79905 2 4.52376 2C4.24847 2 4.02571 1.77637 4.02571 1.5V0H0.498047C0.22276 0 0 0.223633 0 0.5V3.5C0 3.77637 0.22276 4 0.498047 4C1.32195 4 1.99219 4.67287 1.99219 5.5C1.99219 6.32713 1.32195 7 0.498047 7C0.22276 7 0 7.22363 0 7.5V10.5C0 10.7764 0.22276 11 0.498047 11H3.98438V9.5C3.98438 9.22363 4.20714 9 4.48242 9C4.75771 9 4.98047 9.22363 4.98047 9.5V11H16.502C16.7772 11 17 10.7764 17 10.5V0.5C17 0.223633 16.7772 0 16.502 0ZM4.98047 7.5C4.98047 7.77637 4.75771 8 4.48242 8C4.20714 8 3.98438 7.77637 3.98438 7.5V6.5C3.98438 6.22363 4.20714 6 4.48242 6C4.75771 6 4.98047 6.22363 4.98047 6.5V7.5ZM4.98047 4.5C4.98047 4.77637 4.75771 5 4.48242 5C4.20714 5 3.98438 4.77637 3.98438 4.5V3.5C3.98438 3.22363 4.20714 3 4.48242 3C4.75771 3 4.98047 3.22363 4.98047 3.5V4.5ZM8.03516 3.5C8.03516 2.67287 8.70539 2 9.5293 2C10.3532 2 11.0234 2.67287 11.0234 3.5C11.0234 4.32713 10.3532 5 9.5293 5C8.70539 5 8.03516 4.32713 8.03516 3.5ZM9.25305 8.916C9.02398 8.76267 8.96219 8.45263 9.11492 8.22263L13.0993 2.22263C13.2515 1.99267 13.5604 1.93113 13.79 2.08397C14.019 2.2373 14.0808 2.54733 13.9281 2.77733L9.94371 8.77733C9.79346 9.0039 9.48577 9.07087 9.25305 8.916ZM13.5137 9C12.6898 9 12.0195 8.32713 12.0195 7.5C12.0195 6.67287 12.6898 6 13.5137 6C14.3376 6 15.0078 6.67287 15.0078 7.5C15.0078 8.32713 14.3376 9 13.5137 9Z" fill="#FFAA45"/>
<path d="M9.52904 3.00002C9.25425 3.00002 9.03099 3.22416 9.03099 3.50002C9.03099 3.77589 9.25425 4.00002 9.52904 4.00002C9.80383 4.00002 10.0271 3.77589 10.0271 3.50002C10.0271 3.22416 9.80383 3.00002 9.52904 3.00002Z" fill="#FFAA45"/>
</svg>
